<?xml version="1.0" encoding="utf-8"?>
<svg width="900" height="1200" viewBox="0 0 900 1200" xmlns="http://www.w3.org/2000/svg" font-family="'Segoe UI', Arial, sans-serif">

  <defs>
    <marker id="arrowB" viewBox="0 0 10 10" refX="8" refY="5" markerWidth="6" markerHeight="6" orient="auto-start-reverse">
      <path d="M2 1L8 5L2 9" fill="none" stroke="#5B2D8E" stroke-width="1.5" stroke-linecap="round" stroke-linejoin="round"/>
    </marker>
    <marker id="arrowBg" viewBox="0 0 10 10" refX="8" refY="5" markerWidth="6" markerHeight="6" orient="auto-start-reverse">
      <path d="M2 1L8 5L2 9" fill="none" stroke="#2E7D32" stroke-width="1.5" stroke-linecap="round" stroke-linejoin="round"/>
    </marker>
    <marker id="arrowBo" viewBox="0 0 10 10" refX="8" refY="5" markerWidth="6" markerHeight="6" orient="auto-start-reverse">
      <path d="M2 1L8 5L2 9" fill="none" stroke="#F57F17" stroke-width="1.5" stroke-linecap="round" stroke-linejoin="round"/>
    </marker>
    <marker id="arrowBr" viewBox="0 0 10 10" refX="8" refY="5" markerWidth="6" markerHeight="6" orient="auto-start-reverse">
      <path d="M2 1L8 5L2 9" fill="none" stroke="#C62828" stroke-width="1.5" stroke-linecap="round" stroke-linejoin="round"/>
    </marker>
    <marker id="arrowBt" viewBox="0 0 10 10" refX="8" refY="5" markerWidth="6" markerHeight="6" orient="auto-start-reverse">
      <path d="M2 1L8 5L2 9" fill="none" stroke="#0277BD" stroke-width="1.5" stroke-linecap="round" stroke-linejoin="round"/>
    </marker>
  </defs>

  <!-- Background -->
  <rect width="900" height="1200" fill="#F8F9FA"/>

  <!-- Title -->
  <rect x="0" y="0" width="900" height="56" fill="#2D1B5E"/>
  <text x="450" y="22" text-anchor="middle" font-size="15" font-weight="700" fill="white">QUY TRÌNH B — CHUYỂN ĐỔI DỮ LIỆU: BASE64 → FHIR JSON BUNDLE → HAPI FHIR</text>
  <text x="450" y="42" text-anchor="middle" font-size="11" fill="#C5B8E8">Luồng xử lý nội bộ từ payload request đến khi resource được commit vào HAPI FHIR</text>

  <!-- ==================== PHASE CONTAINERS ==================== -->
  <!-- Phase 1: Tiếp nhận -->
  <rect x="12" y="68" width="876" height="112" rx="8" fill="#F3EEF9" stroke="#8B5CF6" stroke-width="1"/>
  <rect x="12" y="68" width="150" height="22" rx="8" fill="#7C3AED"/>
  <rect x="12" y="78" width="150" height="12" fill="#7C3AED"/>
  <text x="87" y="83" text-anchor="middle" font-size="11" font-weight="700" fill="white">GIAI ĐOẠN 1 — TIẾP NHẬN</text>

  <!-- Phase 2: Tách XML con -->
  <rect x="12" y="194" width="876" height="122" rx="8" fill="#EEF7EE" stroke="#4CAF50" stroke-width="1"/>
  <rect x="12" y="194" width="190" height="22" rx="8" fill="#2E7D32"/>
  <rect x="12" y="204" width="190" height="12" fill="#2E7D32"/>
  <text x="107" y="209" text-anchor="middle" font-size="11" font-weight="700" fill="white">GIAI ĐOẠN 2 — TÁCH XML CON</text>

  <!-- Phase 3: Ánh xạ FHIR -->
  <rect x="12" y="330" width="876" height="192" rx="8" fill="#FFF9E6" stroke="#FFC107" stroke-width="1"/>
  <rect x="12" y="330" width="210" height="22" rx="8" fill="#F57F17"/>
  <rect x="12" y="340" width="210" height="12" fill="#F57F17"/>
  <text x="117" y="345" text-anchor="middle" font-size="11" font-weight="700" fill="white">GIAI ĐOẠN 3 — ÁNH XẠ XML → FHIR</text>

  <!-- Phase 4: Làm giàu -->
  <rect x="12" y="536" width="876" height="122" rx="8" fill="#E3F2FD" stroke="#1565C0" stroke-width="1"/>
  <rect x="12" y="536" width="200" height="22" rx="8" fill="#0277BD"/>
  <rect x="12" y="546" width="200" height="12" fill="#0277BD"/>
  <text x="107" y="551" text-anchor="middle" font-size="11" font-weight="700" fill="white">GIAI ĐOẠN 4 — LÀM GIÀU DỮ LIỆU</text>

  <!-- Phase 5: Bundle -->
  <rect x="12" y="672" width="876" height="112" rx="8" fill="#FCE4EC" stroke="#E91E63" stroke-width="1"/>
  <rect x="12" y="672" width="200" height="22" rx="8" fill="#C2185B"/>
  <rect x="12" y="682" width="200" height="12" fill="#C2185B"/>
  <text x="107" y="687" text-anchor="middle" font-size="11" font-weight="700" fill="white">GIAI ĐOẠN 5 — ĐÓNG GÓI BUNDLE</text>

  <!-- Phase 6: Nạp FHIR -->
  <rect x="12" y="798" width="876" height="112" rx="8" fill="#E8F5E9" stroke="#4CAF50" stroke-width="1"/>
  <rect x="12" y="798" width="190" height="22" rx="8" fill="#1B5E20"/>
  <rect x="12" y="808" width="190" height="12" fill="#1B5E20"/>
  <text x="102" y="813" text-anchor="middle" font-size="11" font-weight="700" fill="white">GIAI ĐOẠN 6 — NẠP VÀO HAPI FHIR</text>

  <!-- Phase 7: PATCH -->
  <rect x="12" y="924" width="876" height="122" rx="8" fill="#FFF3E0" stroke="#FF6F00" stroke-width="1"/>
  <rect x="12" y="924" width="230" height="22" rx="8" fill="#E65100"/>
  <rect x="12" y="934" width="230" height="12" fill="#E65100"/>
  <text x="122" y="939" text-anchor="middle" font-size="11" font-weight="700" fill="white">GIAI ĐOẠN 7 — BỔ SUNG FHIR PATCH</text>

  <!-- ==================== PHASE 1 CONTENT ==================== -->
  <!-- Step boxes in a row -->
  <!-- Box 1: Nhận payload -->
  <rect x="26" y="94" width="148" height="72" rx="6" fill="white" stroke="#8B5CF6" stroke-width="1"/>
  <rect x="26" y="94" width="148" height="20" rx="6" fill="#7C3AED"/>
  <rect x="26" y="104" width="148" height="10" fill="#7C3AED"/>
  <text x="100" y="108" text-anchor="middle" font-size="10" font-weight="700" fill="white">1. Nhận payload</text>
  <text x="100" y="124" text-anchor="middle" font-size="9" fill="#4B0082">POST .../ guiHoSo</text>
  <text x="100" y="137" text-anchor="middle" font-size="9" fill="#4B0082">fileHSBase64 = {string}</text>
  <text x="100" y="150" text-anchor="middle" font-size="9" fill="#666">form-urlencoded</text>
  <line x1="174" y1="130" x2="196" y2="130" stroke="#8B5CF6" stroke-width="1.5" marker-end="url(#arrowB)"/>

  <!-- Box 2: Decode Base64 -->
  <rect x="198" y="94" width="148" height="72" rx="6" fill="white" stroke="#8B5CF6" stroke-width="1"/>
  <rect x="198" y="94" width="148" height="20" rx="6" fill="#7C3AED"/>
  <rect x="198" y="104" width="148" height="10" fill="#7C3AED"/>
  <text x="272" y="108" text-anchor="middle" font-size="10" font-weight="700" fill="white">2. Decode Base64</text>
  <text x="272" y="124" text-anchor="middle" font-size="9" fill="#4B0082">Base64 string</text>
  <text x="272" y="137" text-anchor="middle" font-size="9" fill="#4B0082">→ raw XML bytes</text>
  <text x="272" y="150" text-anchor="middle" font-size="9" fill="#666">encoding UTF-8</text>
  <line x1="346" y1="130" x2="368" y2="130" stroke="#8B5CF6" stroke-width="1.5" marker-end="url(#arrowB)"/>

  <!-- Box 3: Parse XML -->
  <rect x="370" y="94" width="148" height="72" rx="6" fill="white" stroke="#8B5CF6" stroke-width="1"/>
  <rect x="370" y="94" width="148" height="20" rx="6" fill="#7C3AED"/>
  <rect x="370" y="104" width="148" height="10" fill="#7C3AED"/>
  <text x="444" y="108" text-anchor="middle" font-size="10" font-weight="700" fill="white">3. Parse XML → DOM</text>
  <text x="444" y="124" text-anchor="middle" font-size="9" fill="#4B0082">XML DOM tree</text>
  <text x="444" y="137" text-anchor="middle" font-size="9" fill="#4B0082">Kiểm tra well-formed</text>
  <text x="444" y="150" text-anchor="middle" font-size="9" fill="#666">→ 422 nếu lỗi</text>
  <line x1="518" y1="130" x2="540" y2="130" stroke="#8B5CF6" stroke-width="1.5" marker-end="url(#arrowB)"/>

  <!-- Box 4: Xác thực chữ ký -->
  <rect x="542" y="94" width="148" height="72" rx="6" fill="white" stroke="#8B5CF6" stroke-width="1"/>
  <rect x="542" y="94" width="148" height="20" rx="6" fill="#7C3AED"/>
  <rect x="542" y="104" width="148" height="10" fill="#7C3AED"/>
  <text x="616" y="108" text-anchor="middle" font-size="10" font-weight="700" fill="white">4. Xác thực chữ ký</text>
  <text x="616" y="124" text-anchor="middle" font-size="9" fill="#4B0082">SHA256 verify</text>
  <text x="616" y="137" text-anchor="middle" font-size="9" fill="#4B0082">&lt;CHUKYDONVI&gt;</text>
  <text x="616" y="150" text-anchor="middle" font-size="9" fill="#666">→ 422 nếu không khớp</text>
  <line x1="690" y1="130" x2="712" y2="130" stroke="#8B5CF6" stroke-width="1.5" marker-end="url(#arrowB)"/>

  <!-- Box 5: Đọc header -->
  <rect x="714" y="94" width="162" height="72" rx="6" fill="white" stroke="#8B5CF6" stroke-width="1"/>
  <rect x="714" y="94" width="162" height="20" rx="6" fill="#7C3AED"/>
  <rect x="714" y="104" width="162" height="10" fill="#7C3AED"/>
  <text x="795" y="108" text-anchor="middle" font-size="10" font-weight="700" fill="white">5. Đọc header</text>
  <text x="795" y="124" text-anchor="middle" font-size="9" fill="#4B0082">MACSKCB, NGAYLAP</text>
  <text x="795" y="137" text-anchor="middle" font-size="9" fill="#4B0082">SOLUONGHOSO</text>
  <text x="795" y="150" text-anchor="middle" font-size="9" fill="#666">từ THONGTINDONVI</text>

  <!-- Down arrow from phase 1 to phase 2 -->
  <line x1="450" y1="166" x2="450" y2="190" stroke="#666" stroke-width="1.5" stroke-dasharray="4 3" marker-end="url(#arrowBg)"/>

  <!-- ==================== PHASE 2 CONTENT ==================== -->
  <!-- Box: Duyệt DANHSACHHOSO -->
  <rect x="26" y="220" width="200" height="82" rx="6" fill="white" stroke="#2E7D32" stroke-width="1"/>
  <rect x="26" y="220" width="200" height="20" rx="6" fill="#388E3C"/>
  <rect x="26" y="230" width="200" height="10" fill="#388E3C"/>
  <text x="126" y="234" text-anchor="middle" font-size="10" font-weight="700" fill="white">Duyệt DANHSACHHOSO</text>
  <text x="126" y="252" text-anchor="middle" font-size="9" fill="#1B5E20">For each &lt;FILEHOSO&gt;:</text>
  <text x="126" y="265" text-anchor="middle" font-size="9" fill="#1B5E20">① Đọc &lt;LOAIHOSO&gt; → XML1..11</text>
  <text x="126" y="278" text-anchor="middle" font-size="9" fill="#1B5E20">② Đọc &lt;NOIDUNGFILE&gt;</text>
  <text x="126" y="291" text-anchor="middle" font-size="9" fill="#666">③ Base64 decode → XML con</text>
  <line x1="226" y1="261" x2="248" y2="261" stroke="#2E7D32" stroke-width="1.5" marker-end="url(#arrowBg)"/>

  <!-- XML files fan -->
  <text x="350" y="215" text-anchor="middle" font-size="10" font-weight="600" fill="#1B5E20">XML con đã giải mã</text>
  <rect x="252" y="220" width="60" height="22" rx="4" fill="#E8F5E9" stroke="#4CAF50" stroke-width="1"/>
  <text x="282" y="235" text-anchor="middle" font-size="9" fill="#1B5E20">XML1</text>
  <rect x="322" y="220" width="60" height="22" rx="4" fill="#E8F5E9" stroke="#4CAF50" stroke-width="1"/>
  <text x="352" y="235" text-anchor="middle" font-size="9" fill="#1B5E20">XML2</text>
  <rect x="392" y="220" width="60" height="22" rx="4" fill="#E8F5E9" stroke="#4CAF50" stroke-width="1"/>
  <text x="422" y="235" text-anchor="middle" font-size="9" fill="#1B5E20">XML3</text>
  <rect x="462" y="220" width="60" height="22" rx="4" fill="#E8F5E9" stroke="#4CAF50" stroke-width="1"/>
  <text x="492" y="235" text-anchor="middle" font-size="9" fill="#1B5E20">XML4</text>
  <rect x="532" y="220" width="60" height="22" rx="4" fill="#E8F5E9" stroke="#4CAF50" stroke-width="1"/>
  <text x="562" y="235" text-anchor="middle" font-size="9" fill="#1B5E20">XML5</text>
  <text x="625" y="228" text-anchor="middle" font-size="11" fill="#2E7D32">···</text>
  <rect x="650" y="220" width="60" height="22" rx="4" fill="#E8F5E9" stroke="#4CAF50" stroke-width="1"/>
  <text x="680" y="235" text-anchor="middle" font-size="9" fill="#1B5E20">XML11</text>

  <!-- parse each -->
  <rect x="252" y="256" width="460" height="44" rx="6" fill="white" stroke="#4CAF50" stroke-width="1"/>
  <text x="482" y="272" text-anchor="middle" font-size="10" font-weight="600" fill="#1B5E20">Parse từng XML con theo schema bảng tương ứng</text>
  <text x="482" y="289" text-anchor="middle" font-size="9" fill="#388E3C">Bảng 1 (XML1) → struct Tổng hợp KCB · Bảng 2 (XML2) → struct Chi tiết thuốc · Bảng 3..11 tương tự</text>

  <!-- Down arrow to phase 3 -->
  <line x1="450" y1="300" x2="450" y2="326" stroke="#666" stroke-width="1.5" stroke-dasharray="4 3" marker-end="url(#arrowBo)"/>

  <!-- ==================== PHASE 3 CONTENT ==================== -->
  <!-- Mapping table -->
  <rect x="26" y="356" width="848" height="150" rx="6" fill="white" stroke="#FFC107" stroke-width="1"/>
  <text x="450" y="373" text-anchor="middle" font-size="10" font-weight="700" fill="#7B3F00">ÁNH XẠ XML → FHIR RESOURCE TYPE</text>

  <!-- Table rows -->
  <!-- Headers -->
  <rect x="28" y="378" width="230" height="18" fill="#FFF8DC"/>
  <rect x="262" y="378" width="610" height="18" fill="#FFF8DC"/>
  <text x="143" y="391" text-anchor="middle" font-size="9" font-weight="700" fill="#7B3F00">XML nguồn</text>
  <text x="567" y="391" text-anchor="middle" font-size="9" font-weight="700" fill="#7B3F00">FHIR Resources được tạo</text>
  <line x1="28" y1="396" x2="836" y2="396" stroke="#FFC107" stroke-width="0.5"/>

  <!-- Row 1 -->
  <text x="36" y="408" font-size="9" fill="#333">XML1 — Tổng hợp KCB (B1)</text>
  <text x="268" y="408" font-size="9" fill="#5B2D8E">Patient · Encounter · Claim · ClaimResponse · Coverage</text>
  <line x1="28" y1="413" x2="836" y2="413" stroke="#EEE" stroke-width="0.5"/>

  <!-- Row 2 -->
  <text x="36" y="424" font-size="9" fill="#333">XML2 — Chi tiết thuốc (B2)</text>
  <text x="268" y="424" font-size="9" fill="#5B2D8E">Medication · MedicationRequest · MedicationDispense</text>
  <line x1="28" y1="429" x2="836" y2="429" stroke="#EEE" stroke-width="0.5"/>

  <!-- Row 3 -->
  <text x="36" y="440" font-size="9" fill="#333">XML3 — DVKT &amp; VTYT (B3)</text>
  <text x="268" y="440" font-size="9" fill="#5B2D8E">ServiceRequest · Procedure · ChargeItem · Device</text>
  <line x1="28" y1="445" x2="836" y2="445" stroke="#EEE" stroke-width="0.5"/>

  <!-- Row 4 -->
  <text x="36" y="456" font-size="9" fill="#333">XML4 — Cận lâm sàng (B4)</text>
  <text x="268" y="456" font-size="9" fill="#5B2D8E">ServiceRequest · DiagnosticReport · Observation</text>
  <line x1="28" y1="461" x2="836" y2="461" stroke="#EEE" stroke-width="0.5"/>

  <!-- Row 5 -->
  <text x="36" y="472" font-size="9" fill="#333">XML5–XML11 (B5–B11)</text>
  <text x="268" y="472" font-size="9" fill="#5B2D8E">ClinicalImpression · Condition · EpisodeOfCare · Composition · DocumentReference</text>
  <line x1="28" y1="477" x2="836" y2="477" stroke="#EEE" stroke-width="0.5"/>

  <!-- Mapping rules -->
  <rect x="26" y="481" width="848" height="32" rx="4" fill="#FFFDE7"/>
  <text x="36" y="491" font-size="9" font-weight="600" fill="#7B3F00">Quy tắc ánh xạ:</text>
  <text x="140" y="491" font-size="9" fill="#555">MA_LK / MA_BN → identifier[] · mã danh mục → CodeableConcept.coding[] · ngày giờ → ISO 8601 · tiền VNĐ → Money</text>
  <text x="36" y="506" font-size="9" fill="#555">Reference nội bộ trong Bundle dùng urn:uuid: làm khóa tạm. Reference sang Organization/Practitioner dùng id đã tồn tại trong HAPI FHIR.</text>

  <!-- Down arrow to phase 4 -->
  <line x1="450" y1="522" x2="450" y2="532" stroke="#666" stroke-width="1.5" stroke-dasharray="4 3" marker-end="url(#arrowBt)"/>

  <!-- ==================== PHASE 4 CONTENT ==================== -->
  <!-- 3 enrichment boxes in a row -->
  <rect x="26" y="562" width="260" height="78" rx="6" fill="white" stroke="#1565C0" stroke-width="1"/>
  <rect x="26" y="562" width="260" height="20" rx="6" fill="#0277BD"/>
  <rect x="26" y="572" width="260" height="10" fill="#0277BD"/>
  <text x="156" y="576" text-anchor="middle" font-size="10" font-weight="700" fill="white">4.1 Tra cứu CodeSystem</text>
  <text x="156" y="593" text-anchor="middle" font-size="9" fill="#0D47A1">Giải mã mã ICD-10 → tên bệnh</text>
  <text x="156" y="606" text-anchor="middle" font-size="9" fill="#0D47A1">Mã DVKT → tên dịch vụ</text>
  <text x="156" y="619" text-anchor="middle" font-size="9" fill="#0D47A1">Mã thuốc → tên + ATC WHO</text>
  <text x="156" y="632" text-anchor="middle" font-size="9" fill="#666">nguồn: CodeSystem đã nạp</text>

  <rect x="308" y="562" width="260" height="78" rx="6" fill="white" stroke="#1565C0" stroke-width="1"/>
  <rect x="308" y="562" width="260" height="20" rx="6" fill="#0277BD"/>
  <rect x="308" y="572" width="260" height="10" fill="#0277BD"/>
  <text x="438" y="576" text-anchor="middle" font-size="10" font-weight="700" fill="white">4.2 Resolve Organization</text>
  <text x="438" y="593" text-anchor="middle" font-size="9" fill="#0D47A1">MA_CSKCB → Organization/{id}</text>
  <text x="438" y="606" text-anchor="middle" font-size="9" fill="#0D47A1">MA_KHOA → Organization/{id}</text>
  <text x="438" y="619" text-anchor="middle" font-size="9" fill="#0D47A1">Tên cơ sở, khoa, tuyến</text>
  <text x="438" y="632" text-anchor="middle" font-size="9" fill="#666">nguồn: Organization đã nạp</text>

  <rect x="590" y="562" width="296" height="78" rx="6" fill="white" stroke="#1565C0" stroke-width="1"/>
  <rect x="590" y="562" width="296" height="20" rx="6" fill="#0277BD"/>
  <rect x="590" y="572" width="296" height="10" fill="#0277BD"/>
  <text x="738" y="576" text-anchor="middle" font-size="10" font-weight="700" fill="white">4.3 Resolve Practitioner</text>
  <text x="738" y="593" text-anchor="middle" font-size="9" fill="#0D47A1">MA_BAC_SI → Practitioner/{id}</text>
  <text x="738" y="606" text-anchor="middle" font-size="9" fill="#0D47A1">NGUOI_THUC_HIEN → Practitioner/{id}</text>
  <text x="738" y="619" text-anchor="middle" font-size="9" fill="#0D47A1">Họ tên, chuyên khoa, vai trò</text>
  <text x="738" y="632" text-anchor="middle" font-size="9" fill="#666">nguồn: Practitioner đã nạp</text>

  <!-- Down arrow to phase 5 -->
  <line x1="450" y1="640" x2="450" y2="668" stroke="#666" stroke-width="1.5" stroke-dasharray="4 3" marker-end="url(#arrowB)"/>

  <!-- ==================== PHASE 5 CONTENT ==================== -->
  <!-- Box: Tạo Bundle transaction -->
  <rect x="26" y="698" width="340" height="76" rx="6" fill="white" stroke="#C2185B" stroke-width="1"/>
  <rect x="26" y="698" width="340" height="20" rx="6" fill="#C2185B"/>
  <rect x="26" y="708" width="340" height="10" fill="#C2185B"/>
  <text x="196" y="712" text-anchor="middle" font-size="10" font-weight="700" fill="white">5.1 Tạo FHIR Bundle (transaction)</text>
  <text x="196" y="730" text-anchor="middle" font-size="9" fill="#880E4F">Gom tất cả resources của 1 hồ sơ (MA_LK)</text>
  <text x="196" y="743" text-anchor="middle" font-size="9" fill="#880E4F">Thiết lập fullUrl: urn:uuid: cho từng entry</text>
  <text x="196" y="756" text-anchor="middle" font-size="9" fill="#880E4F">method: PUT với identifier-based conditional URL</text>
  <text x="196" y="767" text-anchor="middle" font-size="9" fill="#666">e.g. Patient?identifier=MA_BN · Encounter?identifier=MA_LK</text>

  <!-- Box: Validate Bundle -->
  <rect x="382" y="698" width="248" height="76" rx="6" fill="white" stroke="#C2185B" stroke-width="1"/>
  <rect x="382" y="698" width="248" height="20" rx="6" fill="#C2185B"/>
  <rect x="382" y="708" width="248" height="10" fill="#C2185B"/>
  <text x="506" y="712" text-anchor="middle" font-size="10" font-weight="700" fill="white">5.2 Validate Bundle</text>
  <text x="506" y="730" text-anchor="middle" font-size="9" fill="#880E4F">Kiểm tra required fields</text>
  <text x="506" y="743" text-anchor="middle" font-size="9" fill="#880E4F">Reference hợp lệ</text>
  <text x="506" y="756" text-anchor="middle" font-size="9" fill="#880E4F">Cardinality theo FHIR R4B</text>
  <text x="506" y="767" text-anchor="middle" font-size="9" fill="#666">→ 422 nếu vi phạm profile</text>

  <!-- Box: Bundle structure preview -->
  <rect x="646" y="698" width="240" height="76" rx="6" fill="white" stroke="#C2185B" stroke-width="1"/>
  <rect x="646" y="698" width="240" height="20" rx="6" fill="#880E4F"/>
  <rect x="646" y="708" width="240" height="10" fill="#880E4F"/>
  <text x="766" y="712" text-anchor="middle" font-size="10" font-weight="700" fill="white">Cấu trúc Bundle</text>
  <text x="656" y="730" font-size="8" font-family="Consolas, monospace" fill="#880E4F">{ "resourceType": "Bundle",</text>
  <text x="656" y="742" font-size="8" font-family="Consolas, monospace" fill="#880E4F">  "type": "transaction",</text>
  <text x="656" y="754" font-size="8" font-family="Consolas, monospace" fill="#880E4F">  "entry": [ {Patient}, {Encounter},</text>
  <text x="656" y="766" font-size="8" font-family="Consolas, monospace" fill="#880E4F">    {Claim}, {Medication}... ] }</text>

  <!-- Arrow between bundle boxes -->
  <line x1="366" y1="736" x2="380" y2="736" stroke="#C2185B" stroke-width="1.5" marker-end="url(#arrowB)"/>
  <line x1="630" y1="736" x2="644" y2="736" stroke="#C2185B" stroke-width="1.5" marker-end="url(#arrowB)"/>

  <!-- Down arrow to phase 6 -->
  <line x1="450" y1="774" x2="450" y2="794" stroke="#666" stroke-width="1.5" stroke-dasharray="4 3" marker-end="url(#arrowBg)"/>

  <!-- ==================== PHASE 6 CONTENT ==================== -->
  <!-- Box: POST to HAPI FHIR -->
  <rect x="26" y="824" width="240" height="72" rx="6" fill="white" stroke="#2E7D32" stroke-width="1"/>
  <rect x="26" y="824" width="240" height="20" rx="6" fill="#1B5E20"/>
  <rect x="26" y="834" width="240" height="10" fill="#1B5E20"/>
  <text x="146" y="838" text-anchor="middle" font-size="10" font-weight="700" fill="white">6.1 POST Bundle → HAPI FHIR</text>
  <text x="146" y="856" text-anchor="middle" font-size="9" fill="#1B5E20">POST /fhir</text>
  <text x="146" y="869" text-anchor="middle" font-size="9" fill="#1B5E20">Content-Type: application/fhir+json</text>
  <text x="146" y="882" text-anchor="middle" font-size="9" fill="#666">All-or-nothing transaction</text>
  <text x="146" y="893" text-anchor="middle" font-size="9" fill="#666">Rollback nếu bất kỳ entry nào lỗi</text>
  <line x1="266" y1="860" x2="286" y2="860" stroke="#2E7D32" stroke-width="1.5" marker-end="url(#arrowBg)"/>

  <!-- Box: HAPI processes -->
  <rect x="288" y="824" width="240" height="72" rx="6" fill="white" stroke="#2E7D32" stroke-width="1"/>
  <rect x="288" y="824" width="240" height="20" rx="6" fill="#388E3C"/>
  <rect x="288" y="834" width="240" height="10" fill="#388E3C"/>
  <text x="408" y="838" text-anchor="middle" font-size="10" font-weight="700" fill="white">6.2 HAPI FHIR xử lý</text>
  <text x="408" y="856" text-anchor="middle" font-size="9" fill="#1B5E20">Commit từng entry vào store</text>
  <text x="408" y="869" text-anchor="middle" font-size="9" fill="#1B5E20">Trả transaction-response Bundle</text>
  <text x="408" y="882" text-anchor="middle" font-size="9" fill="#666">OperationOutcome cho từng entry</text>
  <line x1="528" y1="860" x2="548" y2="860" stroke="#2E7D32" stroke-width="1.5" marker-end="url(#arrowBg)"/>

  <!-- Box: Log -->
  <rect x="550" y="824" width="200" height="72" rx="6" fill="white" stroke="#2E7D32" stroke-width="1"/>
  <rect x="550" y="824" width="200" height="20" rx="6" fill="#388E3C"/>
  <rect x="550" y="834" width="200" height="10" fill="#388E3C"/>
  <text x="650" y="838" text-anchor="middle" font-size="10" font-weight="700" fill="white">6.3 Ghi log &amp; response</text>
  <text x="650" y="856" text-anchor="middle" font-size="9" fill="#1B5E20">Tạo logId duy nhất</text>
  <text x="650" y="869" text-anchor="middle" font-size="9" fill="#1B5E20">Trả { logId, OperationOutcome }</text>
  <text x="650" y="882" text-anchor="middle" font-size="9" fill="#666">status: success | pending | error</text>

  <!-- Final success marker -->
  <rect x="766" y="824" width="120" height="72" rx="6" fill="#E8F5E9" stroke="#2E7D32" stroke-width="2"/>
  <text x="826" y="850" text-anchor="middle" font-size="12" font-weight="700" fill="#1B5E20">✓ COMMIT</text>
  <text x="826" y="866" text-anchor="middle" font-size="9" fill="#2E7D32">Resources</text>
  <text x="826" y="879" text-anchor="middle" font-size="9" fill="#2E7D32">đã vào FHIR</text>
  <line x1="750" y1="860" x2="764" y2="860" stroke="#2E7D32" stroke-width="1.5" marker-end="url(#arrowBg)"/>

  <!-- Down arrow to phase 7 -->
  <line x1="450" y1="896" x2="450" y2="920" stroke="#666" stroke-width="1.5" stroke-dasharray="4 3" marker-end="url(#arrowBo)"/>

  <!-- ==================== PHASE 7 CONTENT ==================== -->
  <!-- 3 PATCH boxes -->
  <text x="450" y="918" text-anchor="middle" font-size="9" fill="#E65100" font-style="italic">(Không đồng bộ — sau khi import XML xong)</text>

  <rect x="26" y="950" width="260" height="84" rx="6" fill="white" stroke="#E65100" stroke-width="1"/>
  <rect x="26" y="950" width="260" height="20" rx="6" fill="#E65100"/>
  <rect x="26" y="960" width="260" height="10" fill="#E65100"/>
  <text x="156" y="964" text-anchor="middle" font-size="10" font-weight="700" fill="white">PATCH Coverage</text>
  <text x="156" y="982" text-anchor="middle" font-size="9" fill="#BF360C">PATCH /api/fhir/Coverage/{id}</text>
  <text x="156" y="995" text-anchor="middle" font-size="9" fill="#BF360C">Bổ sung: subscriber</text>
  <text x="156" y="1008" text-anchor="middle" font-size="9" fill="#BF360C">subscriberId · beneficiary · payor</text>
  <text x="156" y="1021" text-anchor="middle" font-size="9" fill="#666">nguồn: cổng BHXH</text>

  <rect x="312" y="950" width="260" height="84" rx="6" fill="white" stroke="#E65100" stroke-width="1"/>
  <rect x="312" y="950" width="260" height="20" rx="6" fill="#E65100"/>
  <rect x="312" y="960" width="260" height="10" fill="#E65100"/>
  <text x="442" y="964" text-anchor="middle" font-size="10" font-weight="700" fill="white">PATCH Medication</text>
  <text x="442" y="982" text-anchor="middle" font-size="9" fill="#BF360C">PATCH /api/fhir/Medication/{id}</text>
  <text x="442" y="995" text-anchor="middle" font-size="9" fill="#BF360C">Bổ sung: mã ATC (WHO)</text>
  <text x="442" y="1008" text-anchor="middle" font-size="9" fill="#BF360C">tên INN (Cục Quản lý Dược)</text>
  <text x="442" y="1021" text-anchor="middle" font-size="9" fill="#666">nguồn: danh mục dược quốc gia</text>

  <rect x="598" y="950" width="290" height="84" rx="6" fill="white" stroke="#E65100" stroke-width="1"/>
  <rect x="598" y="950" width="290" height="20" rx="6" fill="#E65100"/>
  <rect x="598" y="960" width="290" height="10" fill="#E65100"/>
  <text x="743" y="964" text-anchor="middle" font-size="10" font-weight="700" fill="white">PATCH ClaimResponse</text>
  <text x="743" y="982" text-anchor="middle" font-size="9" fill="#BF360C">PATCH /api/fhir/ClaimResponse/{id}</text>
  <text x="743" y="995" text-anchor="middle" font-size="9" fill="#BF360C">Cập nhật: status, outcome</text>
  <text x="743" y="1008" text-anchor="middle" font-size="9" fill="#BF360C">processNote (kết quả quyết toán BHXH)</text>
  <text x="743" y="1021" text-anchor="middle" font-size="9" fill="#666">nguồn: cổng BHXH (sau 30–90 ngày)</text>

  <!-- ==================== LEGEND ==================== -->
  <rect x="12" y="1058" width="876" height="120" rx="6" fill="white" stroke="#CCC" stroke-width="0.5"/>
  <text x="450" y="1074" text-anchor="middle" font-size="11" font-weight="600" fill="#333">CHÚ THÍCH</text>

  <rect x="30" y="1082" width="12" height="10" rx="2" fill="#F3EEF9" stroke="#8B5CF6" stroke-width="1"/>
  <text x="48" y="1091" font-size="9" fill="#333">Tiếp nhận &amp; giải mã</text>
  <rect x="30" y="1100" width="12" height="10" rx="2" fill="#EEF7EE" stroke="#4CAF50" stroke-width="1"/>
  <text x="48" y="1109" font-size="9" fill="#333">Tách &amp; parse XML con</text>
  <rect x="30" y="1118" width="12" height="10" rx="2" fill="#FFF9E6" stroke="#FFC107" stroke-width="1"/>
  <text x="48" y="1127" font-size="9" fill="#333">Ánh xạ XML → FHIR</text>
  <rect x="30" y="1136" width="12" height="10" rx="2" fill="#E3F2FD" stroke="#1565C0" stroke-width="1"/>
  <text x="48" y="1145" font-size="9" fill="#333">Làm giàu dữ liệu</text>

  <rect x="200" y="1082" width="12" height="10" rx="2" fill="#FCE4EC" stroke="#E91E63" stroke-width="1"/>
  <text x="218" y="1091" font-size="9" fill="#333">Đóng gói Bundle</text>
  <rect x="200" y="1100" width="12" height="10" rx="2" fill="#E8F5E9" stroke="#2E7D32" stroke-width="1.5"/>
  <text x="218" y="1109" font-size="9" fill="#333">Nạp HAPI FHIR</text>
  <rect x="200" y="1118" width="12" height="10" rx="2" fill="#FFF3E0" stroke="#E65100" stroke-width="1"/>
  <text x="218" y="1127" font-size="9" fill="#333">Bổ sung PATCH (async)</text>

  <text x="400" y="1091" font-size="9" font-weight="600" fill="#333">Luồng dữ liệu:</text>
  <text x="400" y="1106" font-size="9" fill="#555">Base64(GIAMDINHHS) → decode → XML DOM → tách N XML con → mỗi XML con decode Base64 → parse</text>
  <text x="400" y="1119" font-size="9" fill="#555">→ map sang FHIR resource → làm giàu với CodeSystem/Organization/Practitioner</text>
  <text x="400" y="1132" font-size="9" fill="#555">→ bundle transaction → POST HAPI FHIR → commit → logId → (async) PATCH bổ sung</text>

</svg>
